<?xml version="1.0" encoding="UTF-8"?>
<svg id="Layer_2" data-name="Layer 2" xmlns="http://www.w3.org/2000/svg" viewBox="0 0 207.96 117.89">
  <defs>
    <style>
      .cls-1 {
        fill: #263a82;
      }

      .cls-1, .cls-2, .cls-3 {
        stroke-width: 0px;
      }

      .cls-2 {
        fill: #0e1d52;
      }

      .cls-3 {
        fill: #fff;
      }
    </style>
  </defs>
  <g id="Layer_1-2" data-name="Layer 1">
    <rect class="cls-3" x="67.45" y="64.5" width="13.52" height="22.98"/>
    <rect class="cls-3" x="61.36" y="92.88" width="106.1" height="25.01"/>
    <rect class="cls-3" x="90.43" y="64.5" width="13.52" height="22.98"/>
    <rect class="cls-3" x="113.4" y="64.5" width="13.52" height="22.98"/>
    <rect class="cls-3" x="138.41" y="64.5" width="13.52" height="22.98"/>
    <rect class="cls-3" x="166.79" y="64.5" width="13.52" height="22.98"/>
    <rect class="cls-3" x="189.77" y="64.5" width="13.52" height="22.98"/>
    <path class="cls-2" d="m0,74.81c0-6.97,1.87-14.23,5.6-21.78,3.73-7.62,8.47-14.48,14.23-20.56,5.76-6.08,11.92-11.64,18.49-16.67,6.57-5.03,12.85-8.92,18.86-11.68,6.08-2.76,11.03-4.14,14.84-4.14,1.46,0,3.04.57,4.74,1.7,1.78,1.14,2.68,2.47,2.68,4.01,0,1.46-1.5,4.26-4.5,8.39-3,4.06-6.65,8.68-10.95,13.87-4.22,5.19-8.47,10.54-12.77,16.06-4.3,5.51-7.95,10.95-10.95,16.3-3,5.35-4.5,9.69-4.5,13.02,0,1.3.65,1.95,1.95,1.95,2.43,0,6.16-2.43,11.19-7.3,5.03-4.95,10.58-10.91,16.67-17.88,6.16-7.06,12.53-14.07,19.1-21.05,6.65-7.06,13.46-13.02,20.44-17.88,7.06-4.95,13.26-7.42,18.61-7.42,1.54,0,3.16.45,4.87,1.34,1.7.81,2.55,1.74,2.55,2.8,0,.97-.45,1.74-1.34,2.31-.89.57-2.43,1.38-4.62,2.43-2.11,1.05-4.66,2.43-7.66,4.14-3,1.62-6.93,4.22-11.8,7.79-4.87,3.49-10.14,7.62-15.81,12.41-13.54,11.44-28.99,26.92-46.35,46.47-6.97,7.78-16.38,11.68-28.22,11.68h-.12c-3.57,0-6.97-2.23-10.22-6.69-3.16-4.54-4.83-9.08-4.99-13.62Z"/>
    <path class="cls-1" d="m6.08,74.81c0-6.97,1.87-14.23,5.6-21.78,3.73-7.62,8.47-14.48,14.23-20.56,5.76-6.08,11.92-11.64,18.49-16.67,6.57-5.03,12.85-8.92,18.86-11.68,6.08-2.76,11.03-4.14,14.84-4.14,1.46,0,3.04.57,4.74,1.7,1.78,1.14,2.68,2.47,2.68,4.01,0,1.46-1.5,4.26-4.5,8.39-3,4.06-6.65,8.68-10.95,13.87-4.22,5.19-8.47,10.54-12.77,16.06-4.3,5.51-7.95,10.95-10.95,16.3-3,5.35-4.5,9.69-4.5,13.02,0,1.3.65,1.95,1.95,1.95,2.43,0,6.16-2.43,11.19-7.3,5.03-4.95,10.58-10.91,16.67-17.88,6.16-7.06,12.53-14.07,19.1-21.05,6.65-7.06,13.46-13.02,20.44-17.88,7.06-4.95,13.26-7.42,18.61-7.42,1.54,0,3.16.45,4.87,1.34,1.7.81,2.55,1.74,2.55,2.8,0,.97-.45,1.74-1.34,2.31-.89.57-2.43,1.38-4.62,2.43-2.11,1.05-4.66,2.43-7.66,4.14-3,1.62-6.93,4.22-11.8,7.79-4.87,3.49-10.14,7.62-15.81,12.41-13.54,11.44-28.99,26.92-46.35,46.47-6.97,7.78-16.38,11.68-28.22,11.68h-.12c-3.57,0-6.97-2.23-10.22-6.69-3.16-4.54-4.83-9.08-4.99-13.62Z"/>
    <path class="cls-2" d="m72.79,106h4.55c.27,0,.34.18.22.55l-.12.43c-.02.06-.07.22-.16.5-.08.27-.25.73-.5,1.38-.25.65-.51,1.25-.77,1.8-.26.55-.56,1.09-.91,1.62-.34.53-.69.96-1.06,1.28-.82.72-1.79,1.07-2.91,1.07-.63,0-1.24-.19-1.82-.57-1.07-.71-1.61-2.36-1.61-4.96,0-1.36.21-2.87.62-4.52.41-1.66.97-3.1,1.66-4.33.7-1.23,1.51-2.21,2.44-2.94.93-.73,1.88-1.1,2.85-1.1.65,0,1.2.18,1.66.54.46.35.85.98,1.16,1.9.32.92.48,1.61.48,2.07s-.17.76-.5.88l-.87.26c-.17.04-.31.02-.43-.07-.11-.1-.17-.4-.19-.91-.02-.52-.15-1.05-.39-1.6-.23-.55-.53-.87-.91-.96-.77-.21-1.63.29-2.56,1.51-.93,1.21-1.69,2.9-2.28,5.06-.72,2.61-.89,4.76-.49,6.45.22.96.56,1.45,1.01,1.49.87.1,1.63-.34,2.28-1.3.74-1.09,1.3-2.36,1.68-3.81h-2.39c-.33,0-.43-.23-.3-.69l.21-.71c.03-.12.07-.2.12-.23.05-.04.13-.06.24-.06Zm9.93-.89c2.32-3.45,3.99-6.24,5-8.37.11-.24.35-.35.74-.33l.78.1c.19.02.32.11.39.27.07.16.04.37-.1.63-1.95,3.42-4.1,6.69-6.45,9.81l-1.72,6.72c-.1.37-.35.55-.74.55h-.72c-.2,0-.35-.07-.44-.22-.09-.15-.11-.34-.06-.55l1.74-6.89c0-1.1-.13-2.66-.39-4.68-.25-2.03-.47-3.38-.66-4.05-.19-.68-.22-1.12-.11-1.33.11-.21.29-.32.54-.34l.69-.1c.24-.02.4.01.5.09.11.07.18.24.23.51.52,3.08.78,5.8.77,8.18Zm8.76-8.15c.1-.36.34-.54.72-.55h.8c.35,0,.55.19.6.57.46,4.83.6,8.35.43,10.56l6.39-10.65c.18-.32.43-.47.74-.47h.83c.18.02.31.1.39.24.09.15.11.32.06.54l-4.26,16.75c-.1.37-.35.55-.76.55h-.72c-.2,0-.35-.07-.44-.22-.09-.15-.11-.34-.06-.55l2.88-11.29c-.58,1.02-1.39,2.35-2.42,3.99-1.04,1.63-1.7,2.67-1.97,3.12-.42.67-.84,1-1.26.97l-.5-.02c-.46-.02-.66-.36-.62-1,.11-1.76.07-4.17-.15-7.23l-2.97,11.68c-.1.37-.35.55-.74.55h-.73c-.2,0-.35-.07-.44-.22-.09-.15-.11-.34-.06-.55l4.28-16.76Zm14.28,0c.1-.36.34-.54.72-.55h.76c.33,0,.55.26.65.78l2.21,12.64,3.28-12.87c.1-.37.35-.55.75-.55h.72c.2,0,.35.08.44.23.09.15.11.34.06.55l-4.27,16.75c-.1.37-.35.55-.75.55h-.89c-.21,0-.35-.1-.4-.29-.03-.12-.06-.22-.07-.3,0-.08-.02-.14-.02-.17l-2.21-12.59-3.27,12.81c-.1.37-.35.55-.74.55h-.73c-.2,0-.35-.07-.44-.22-.09-.15-.11-.34-.06-.55l4.28-16.76Zm11.98,12.11l-2.41,4.91c-.18.37-.49.54-.93.5l-.57-.05c-.29,0-.48-.12-.57-.33-.09-.21-.07-.42.05-.62l8.31-16.03c.35-.67.81-1,1.38-1l1-.02c.3,0,.54.1.71.31.17.2.24.5.22.9l-.88,16.29c-.02.37-.26.55-.74.55l-.85-.02c-.41,0-.6-.22-.57-.67l.32-4.72h-4.45Zm.89-1.8h3.68l.57-8.68-4.25,8.68Zm15.08-11.13c1.08,0,1.85.44,2.29,1.33.45.89.67,2.16.67,3.82,0,.41-.14.66-.41.74l-.88.28c-.14.04-.27.02-.4-.07-.13-.09-.19-.24-.19-.45,0-2.2-.36-3.47-1.07-3.8-.33-.17-.73-.14-1.19.08-.46.22-.93.76-1.41,1.61-.48.85-.74,1.81-.77,2.9-.02.44.06.78.22,1.01.16.23.48.42.95.59l1.02.35c.98.33,1.63.74,1.94,1.22.28.44.41,1.15.41,2.13s-.26,2.02-.79,3.15c-.52,1.12-1.23,2.05-2.12,2.78-.89.72-1.83,1.09-2.8,1.09-1.97,0-2.95-1.6-2.95-4.79v-.09c0-.63.13-.98.38-1.05l.93-.29c.16-.07.3-.05.4.04.11.09.17.24.17.44,0,1.31.08,2.29.23,2.96.15.66.41,1.08.77,1.26.25.06.58,0,.98-.17.67-.3,1.28-.92,1.82-1.86.66-1.14.98-2.43.95-3.86,0-.44-.25-.79-.73-1.05-.24-.12-.59-.25-1.04-.39l-1.05-.33c-.47-.14-.88-.4-1.22-.79-.34-.39-.51-.92-.51-1.58s.13-1.42.4-2.27c.28-.85.64-1.64,1.1-2.38.46-.73,1.04-1.34,1.73-1.82.7-.48,1.43-.72,2.19-.72Zm14.83,2.07h-3.83l-4.02,15.72c-.1.37-.35.55-.74.55h-.72c-.2,0-.35-.07-.44-.22-.09-.15-.11-.34-.06-.55l3.95-15.5h-3.95c-.47,0-.65-.19-.55-.57l.17-.73c.05-.21.12-.35.22-.4.11-.07.28-.1.52-.1h9.74c.5,0,.7.24.6.71l-.12.57c-.07.35-.32.52-.77.52Zm2.79-1.25c.1-.37.35-.55.74-.55h.73c.2,0,.35.08.43.23.09.15.11.34.06.55l-4.27,16.75c-.1.37-.35.55-.74.55h-.73c-.2,0-.35-.07-.44-.22-.09-.15-.11-.34-.06-.55l4.28-16.76Zm5.54,0c.1-.37.35-.55.74-.55h.73c.2,0,.35.08.43.23.09.15.11.34.06.55l-1.77,6.92,6-7.3c.21-.27.48-.4.82-.4h1.05c.22,0,.36.07.43.22.07.15.04.31-.1.49l-6.81,8.08,2.55,8.54c.16.5.01.74-.43.74h-.93c-.24,0-.39-.04-.47-.12-.08-.09-.15-.25-.22-.5l-2.35-7.89-2.02,7.96c-.1.37-.35.55-.74.55h-.73c-.2,0-.35-.07-.44-.22-.09-.15-.11-.34-.06-.55l4.28-16.76Z"/>
    <path class="cls-2" d="m76.14,63.18c1.33,0,2.54.2,3.62.59,1.08.4,2,.94,2.75,1.62.77.69,1.35,1.49,1.76,2.42.41.91.61,1.88.61,2.91v12.04c0,1.03-.2,2.01-.61,2.93-.41.91-1,1.71-1.76,2.39-.75.69-1.67,1.23-2.75,1.62-1.08.4-2.29.59-3.62.59h-6.1c-1.33,0-2.54-.2-3.62-.59-1.08-.4-2.01-.94-2.77-1.62-.75-.69-1.33-1.48-1.74-2.39-.41-.92-.61-1.9-.61-2.93v-12.04c0-1.03.2-2,.61-2.91.41-.92.99-1.73,1.74-2.42.77-.69,1.69-1.23,2.77-1.62,1.08-.4,2.29-.59,3.62-.59h6.1Zm1.82,18.16h2.26l-1.56-14.75-1.23-1.23-2.63-.4h-2.12l-2.63.4-1.21,1.23-1.62,14.75h2.36l.32-4.22.2-1.82h7.31l.2,1.82.38,4.22Zm-1.39-13.98c.09,1.07.2,2.08.32,3.03.12.95.23,1.95.34,3.01h-6.97l.59-6.04c.37-.04.69-.09.95-.14.28-.05.6-.11.97-.16h1.94l1.86.3Zm25.3,11.88h-6.08v-14.28h-2.1v16.37h8.18v-2.1Zm-2.3-16.06c1.33,0,2.54.2,3.62.59,1.08.4,2,.94,2.75,1.62.77.69,1.35,1.49,1.76,2.42.41.91.61,1.88.61,2.91v12.04c0,1.03-.21,2.01-.61,2.93-.41.91-1,1.71-1.76,2.39-.75.69-1.67,1.23-2.75,1.62-1.08.4-2.29.59-3.62.59h-6.1c-1.33,0-2.54-.2-3.62-.59-1.08-.4-2.01-.94-2.77-1.62-.75-.69-1.33-1.48-1.74-2.39-.41-.92-.61-1.9-.61-2.93v-12.04c0-1.03.2-2,.61-2.91.41-.92.99-1.73,1.74-2.42.77-.69,1.69-1.23,2.77-1.62,1.08-.4,2.29-.59,3.62-.59h6.1Zm23.44,0c1.33,0,2.54.2,3.62.59,1.08.4,2,.94,2.75,1.62.77.69,1.35,1.49,1.76,2.42.41.91.61,1.88.61,2.91v12.04c0,1.03-.2,2.01-.61,2.93-.41.91-1,1.71-1.76,2.39-.75.69-1.67,1.23-2.75,1.62-1.08.4-2.29.59-3.62.59h-6.1c-1.33,0-2.54-.2-3.62-.59-1.08-.4-2.01-.94-2.77-1.62-.75-.69-1.33-1.48-1.74-2.39-.41-.92-.61-1.9-.61-2.93v-12.04c0-1.03.21-2,.61-2.91.41-.92.99-1.73,1.74-2.42.77-.69,1.69-1.23,2.77-1.62,1.08-.4,2.29-.59,3.62-.59h6.1Zm3.19,11.88l-.38-1.46-1.58-.69,1.58-.59.38-1.5v-2.63l-.28-1.66-1.25-1.27-2.04-.28h-8.32v16.37h8.32l2.04-.24,1.25-1.25.28-1.66v-3.13Zm-2.38,3.98l-1.31.2h-6.08v-5.23h6.12l1.35.16.2,1.17v2.63l-.28,1.07Zm0-7.35l-1.31.24h-6.08v-4.87h6.08l1.39.22-.08,1.17.28,2.2-.28,1.05Zm16.95-6.73h-2.48l4.95,11.76v4.61h2.1v-4.57l5.03-11.8h-2.47l-3.6,8.89-3.52-8.89Zm5.68-1.78c1.33,0,2.54.2,3.62.59,1.08.4,2,.94,2.75,1.62.77.69,1.35,1.49,1.76,2.42.41.91.61,1.88.61,2.91v12.04c0,1.03-.21,2.01-.61,2.93-.41.91-1,1.71-1.76,2.39-.75.69-1.67,1.23-2.75,1.62-1.08.4-2.29.59-3.62.59h-6.1c-1.33,0-2.54-.2-3.62-.59-1.08-.4-2.01-.94-2.77-1.62-.75-.69-1.33-1.48-1.74-2.39-.41-.92-.61-1.9-.61-2.93v-12.04c0-1.03.2-2,.61-2.91.41-.92.99-1.73,1.74-2.42.77-.69,1.69-1.23,2.77-1.62,1.08-.4,2.29-.59,3.62-.59h6.1Zm21.62,16.06v2.1h11.44v-2.1h-4.65v-12.18h4.65v-2.1h-11.44v2.1h4.67v12.18h-4.67Zm7.68-16.06c1.33,0,2.54.2,3.62.59,1.08.4,2,.94,2.75,1.62.77.69,1.35,1.49,1.76,2.42.41.91.61,1.88.61,2.91v12.04c0,1.03-.2,2.01-.61,2.93-.41.91-1,1.71-1.76,2.39-.75.69-1.67,1.23-2.75,1.62-1.08.4-2.29.59-3.62.59h-6.1c-1.33,0-2.54-.2-3.62-.59-1.08-.4-2.01-.94-2.77-1.62-.75-.69-1.33-1.48-1.74-2.39-.41-.92-.61-1.9-.61-2.93v-12.04c0-1.03.21-2,.61-2.91.41-.92.99-1.73,1.74-2.42.77-.69,1.69-1.23,2.77-1.62,1.08-.4,2.29-.59,3.62-.59h6.1Zm25.26,8.59h-6.61v-4.71h7.74v-2.1h-9.86v16.37h2.12v-7.48h6.61v-2.08Zm-1.82-8.59c1.33,0,2.54.2,3.62.59,1.08.4,2,.94,2.75,1.62.77.69,1.35,1.49,1.76,2.42.41.91.61,1.88.61,2.91v12.04c0,1.03-.2,2.01-.61,2.93-.41.91-1,1.71-1.76,2.39-.75.69-1.67,1.23-2.75,1.62-1.08.4-2.29.59-3.62.59h-6.1c-1.33,0-2.54-.2-3.62-.59-1.08-.4-2.01-.94-2.77-1.62-.75-.69-1.33-1.48-1.74-2.39-.41-.92-.61-1.9-.61-2.93v-12.04c0-1.03.2-2,.61-2.91.41-.92.99-1.73,1.74-2.42.77-.69,1.69-1.23,2.77-1.62,1.08-.4,2.29-.59,3.62-.59h6.1Z"/>
  </g>
</svg>